<svg width="36" height="36" viewBox="0 0 36 36" fill="none" xmlns="http://www.w3.org/2000/svg">
<g id="bi:arrow-down">
<path id="Vector" fill-rule="evenodd" clip-rule="evenodd" d="M2.25 18C2.25 17.7017 2.36853 17.4155 2.5795 17.2045C2.79048 16.9936 3.07663 16.875 3.375 16.875L29.9092 16.875L22.8285 9.79654C22.6173 9.5853 22.4986 9.29879 22.4986 9.00004C22.4986 8.7013 22.6173 8.41479 22.8285 8.20354C23.0397 7.9923 23.3263 7.87362 23.625 7.87362C23.9237 7.87362 24.2103 7.9923 24.4215 8.20354L33.4215 17.2035C33.5263 17.308 33.6094 17.4322 33.6661 17.5689C33.7228 17.7055 33.752 17.8521 33.752 18C33.752 18.148 33.7228 18.2945 33.6661 18.4312C33.6094 18.5679 33.5263 18.692 33.4215 18.7965L24.4215 27.7965C24.2103 28.0078 23.9237 28.1265 23.625 28.1265C23.3263 28.1265 23.0397 28.0078 22.8285 27.7965C22.6173 27.5853 22.4986 27.2988 22.4986 27C22.4986 26.7013 22.6173 26.4148 22.8285 26.2035L29.9092 19.125L3.375 19.125C3.07663 19.125 2.79048 19.0065 2.5795 18.7955C2.36853 18.5846 2.25 18.2984 2.25 18Z" fill="white"/>
</g>
</svg>
