<svg width="22" height="23" viewBox="0 0 22 23" fill="none" xmlns="http://www.w3.org/2000/svg">
<g id="bi:eye-fill" clip-path="url(#clip0_1_375)">
<g id="Group">
<path id="Vector" d="M14.4094 11.2626C14.4094 12.1691 14.0493 13.0385 13.4083 13.6795C12.7674 14.3204 11.898 14.6805 10.9915 14.6805C10.085 14.6805 9.21567 14.3204 8.57469 13.6795C7.93371 13.0385 7.57361 12.1691 7.57361 11.2626C7.57361 10.3561 7.93371 9.48679 8.57469 8.84581C9.21567 8.20483 10.085 7.84473 10.9915 7.84473C11.898 7.84473 12.7674 8.20483 13.4083 8.84581C14.0493 9.48679 14.4094 10.3561 14.4094 11.2626Z" fill="#7D6B7D"/>
<path id="Vector_2" d="M0.0541992 11.2627C0.0541992 11.2627 4.15568 3.74335 10.9915 3.74335C17.8273 3.74335 21.9288 11.2627 21.9288 11.2627C21.9288 11.2627 17.8273 18.7821 10.9915 18.7821C4.15568 18.7821 0.0541992 11.2627 0.0541992 11.2627ZM10.9915 16.0478C12.2606 16.0478 13.4777 15.5437 14.375 14.6463C15.2724 13.7489 15.7766 12.5318 15.7766 11.2627C15.7766 9.99366 15.2724 8.77656 14.375 7.87918C13.4777 6.98181 12.2606 6.47767 10.9915 6.47767C9.72241 6.47767 8.50531 6.98181 7.60794 7.87918C6.71056 8.77656 6.20642 9.99366 6.20642 11.2627C6.20642 12.5318 6.71056 13.7489 7.60794 14.6463C8.50531 15.5437 9.72241 16.0478 10.9915 16.0478Z" fill="#7D6B7D"/>
</g>
</g>
<defs>
<clipPath id="clip0_1_375">
<rect width="21.8746" height="21.8746" fill="white" transform="translate(0.0541992 0.325439)"/>
</clipPath>
</defs>
</svg>
