<svg width="30" height="30" viewBox="0 0 30 30" fill="none" xmlns="http://www.w3.org/2000/svg">
<g id="bi:search" clip-path="url(#clip0_1_56)">
<path id="Vector" d="M22.0162 19.3949C23.8318 16.9175 24.645 13.8459 24.2931 10.7946C23.9412 7.74333 22.4501 4.93745 20.1183 2.93831C17.7865 0.939171 14.7858 -0.105799 11.7166 0.0124631C8.64735 0.130725 5.73597 1.4035 3.56487 3.57615C1.39378 5.74879 0.123092 8.66109 0.00702615 11.7304C-0.10904 14.7997 0.938077 17.7996 2.93889 20.13C4.9397 22.4604 7.74664 23.9494 10.7982 24.2992C13.8497 24.6489 16.9207 23.8335 19.3969 22.0162H19.395C19.4512 22.0912 19.5112 22.1624 19.5787 22.2318L26.7975 29.4506C27.1491 29.8024 27.626 30.0001 28.1234 30.0003C28.6208 30.0005 29.0979 29.8031 29.4497 29.4515C29.8015 29.0999 29.9993 28.623 29.9994 28.1256C29.9996 27.6282 29.8022 27.1511 29.4506 26.7993L22.2319 19.5806C22.1648 19.5127 22.0928 19.45 22.0162 19.3931V19.3949ZM22.5 12.1874C22.5 13.5417 22.2333 14.8827 21.715 16.1339C21.1968 17.385 20.4371 18.5219 19.4795 19.4795C18.5219 20.4371 17.3851 21.1967 16.1339 21.715C14.8827 22.2332 13.5418 22.4999 12.1875 22.4999C10.8332 22.4999 9.49224 22.2332 8.24107 21.715C6.9899 21.1967 5.85306 20.4371 4.89546 19.4795C3.93785 18.5219 3.17824 17.385 2.65999 16.1339C2.14174 14.8827 1.875 13.5417 1.875 12.1874C1.875 9.4524 2.96149 6.82937 4.89546 4.89541C6.82943 2.96144 9.45245 1.87494 12.1875 1.87494C14.9225 1.87494 17.5456 2.96144 19.4795 4.89541C21.4135 6.82937 22.5 9.4524 22.5 12.1874Z" fill="#6C757D"/>
</g>
<defs>
<clipPath id="clip0_1_56">
<rect width="30" height="30" fill="white"/>
</clipPath>
</defs>
</svg>
