<svg width="28" height="29" viewBox="0 0 28 29" fill="none" xmlns="http://www.w3.org/2000/svg">
<g id="charm:share">
<g id="Group">
<path id="Vector" d="M6.9962 18.1932C9.167 18.1932 10.9268 16.4334 10.9268 14.2626C10.9268 12.0918 9.167 10.332 6.9962 10.332C4.8254 10.332 3.06561 12.0918 3.06561 14.2626C3.06561 16.4334 4.8254 18.1932 6.9962 18.1932Z" stroke="#3C4852" stroke-width="1.82288" stroke-linecap="round" stroke-linejoin="round"/>
<path id="Vector_2" d="M20.9716 25.1809C23.1424 25.1809 24.9022 23.4211 24.9022 21.2503C24.9022 19.0795 23.1424 17.3197 20.9716 17.3197C18.8008 17.3197 17.041 19.0795 17.041 21.2503C17.041 23.4211 18.8008 25.1809 20.9716 25.1809Z" stroke="#3C4852" stroke-width="1.82288" stroke-linecap="round" stroke-linejoin="round"/>
<path id="Vector_3" d="M20.9716 11.2055C23.1424 11.2055 24.9022 9.44569 24.9022 7.27489C24.9022 5.10408 23.1424 3.3443 20.9716 3.3443C18.8008 3.3443 17.041 5.10408 17.041 7.27489C17.041 9.44569 18.8008 11.2055 20.9716 11.2055Z" stroke="#3C4852" stroke-width="1.82288" stroke-linecap="round" stroke-linejoin="round"/>
<path id="Vector_4" d="M10.4901 12.5156L17.4778 9.02179M10.4901 16.0095L17.4778 19.5034L10.4901 16.0095Z" stroke="#3C4852" stroke-width="1.82288" stroke-linecap="round" stroke-linejoin="round"/>
</g>
</g>
</svg>
