<svg width="23" height="23" viewBox="0 0 23 23" fill="none" xmlns="http://www.w3.org/2000/svg">
<g id="clarity:share-solid" clip-path="url(#clip0_1_385)">
<path id="Vector" d="M17.422 14.9085C17.0127 14.91 16.608 14.9943 16.2321 15.1561C15.8562 15.3179 15.5169 15.5541 15.2345 15.8503L7.82753 12.1438C8.00973 11.5913 8.00973 10.9949 7.82753 10.4424L15.2467 6.66904C15.7781 7.22905 16.4987 7.57146 17.2685 7.62973C18.0383 7.688 18.8023 7.45797 19.412 6.98433C20.0216 6.5107 20.4334 5.82731 20.5673 5.06699C20.7011 4.30666 20.5475 3.52373 20.1363 2.87036C19.725 2.21699 19.0856 1.73986 18.3421 1.53172C17.5987 1.32357 16.8044 1.39927 16.1137 1.74411C15.423 2.08895 14.8852 2.67829 14.6048 3.39758C14.3244 4.11687 14.3214 4.91473 14.5965 5.63608L7.25028 9.37298C6.85353 8.88776 6.31642 8.53712 5.71257 8.36914C5.10872 8.20115 4.46769 8.22404 3.87736 8.43466C3.28703 8.64529 2.77629 9.03334 2.41516 9.54562C2.05402 10.0579 1.86017 10.6693 1.86017 11.2961C1.86017 11.9229 2.05402 12.5343 2.41516 13.0466C2.77629 13.5589 3.28703 13.947 3.87736 14.1576C4.46769 14.3682 5.10872 14.3911 5.71257 14.2231C6.31642 14.0551 6.85353 13.7045 7.25028 13.2193L14.5783 16.9076C14.4544 17.24 14.3907 17.5918 14.3899 17.9466C14.3899 18.5475 14.5681 19.1349 14.9019 19.6345C15.2358 20.1341 15.7102 20.5235 16.2654 20.7535C16.8205 20.9834 17.4314 21.0436 18.0207 20.9264C18.6101 20.8091 19.1514 20.5198 19.5763 20.0949C20.0012 19.67 20.2906 19.1287 20.4078 18.5393C20.525 17.95 20.4649 17.3391 20.2349 16.784C20.005 16.2288 19.6156 15.7543 19.1159 15.4205C18.6163 15.0866 18.0289 14.9085 17.428 14.9085H17.422Z" fill="#7D6B7D"/>
</g>
<defs>
<clipPath id="clip0_1_385">
<rect width="21.8746" height="21.8746" fill="white" transform="translate(0.69397 0.325439)"/>
</clipPath>
</defs>
</svg>
