<svg width="29" height="29" viewBox="0 0 29 29" fill="none" xmlns="http://www.w3.org/2000/svg">
<g id="ep:collection-tag">
<path id="Vector" d="M7.84111 3.78111V22.8576L13.1919 18.5758C13.6566 18.2042 14.2338 18.0017 14.8288 18.0017C15.4238 18.0017 16.0011 18.2042 16.4657 18.5758L21.8165 22.8558V3.78111H7.84111ZM6.96764 2.03418H22.69C22.9216 2.03418 23.1438 2.12621 23.3076 2.29001C23.4714 2.45382 23.5635 2.67599 23.5635 2.90764V24.6744C23.5632 24.8387 23.5166 24.9997 23.429 25.1387C23.3414 25.2778 23.2163 25.3893 23.0682 25.4605C22.92 25.5316 22.7548 25.5596 22.5915 25.541C22.4282 25.5225 22.2734 25.4582 22.145 25.3557L15.3739 19.9402C15.2191 19.8166 15.0269 19.7493 14.8288 19.7493C14.6307 19.7493 14.4386 19.8166 14.2838 19.9402L7.51268 25.3557C7.38425 25.4582 7.22948 25.5225 7.06617 25.541C6.90286 25.5596 6.73763 25.5316 6.58948 25.4605C6.44132 25.3893 6.31625 25.2778 6.22863 25.1387C6.14101 24.9997 6.09441 24.8387 6.09418 24.6744V2.90764C6.09418 2.67599 6.1862 2.45382 6.35001 2.29001C6.51382 2.12621 6.73598 2.03418 6.96764 2.03418Z" fill="#3C4852"/>
</g>
</svg>
