<svg width="42" height="42" viewBox="0 0 42 42" fill="none" xmlns="http://www.w3.org/2000/svg">
<g id="eva:star-fill">
<path id="Vector" d="M30.8377 36.7058C30.5649 36.7069 30.2958 36.6426 30.053 36.5182L21.353 31.9635L12.653 36.5182C12.3705 36.6667 12.052 36.733 11.7336 36.7096C11.4153 36.6861 11.11 36.5738 10.8523 36.3855C10.5946 36.1971 10.395 35.9402 10.276 35.644C10.1571 35.3478 10.1236 35.0242 10.1795 34.7099L11.8853 25.1058L4.8571 18.2823C4.63782 18.0635 4.48227 17.7891 4.40713 17.4885C4.332 17.188 4.34012 16.8727 4.43063 16.5764C4.5295 16.2732 4.71138 16.0038 4.95561 15.7988C5.19985 15.5938 5.49667 15.4613 5.81239 15.4164L15.5359 14.0005L19.8177 5.24935C19.9574 4.96094 20.1755 4.7177 20.447 4.54751C20.7185 4.37732 21.0325 4.28705 21.353 4.28705C21.6734 4.28705 21.9874 4.37732 22.259 4.54751C22.5305 4.7177 22.7486 4.96094 22.8883 5.24935L27.2212 13.9835L36.9447 15.3994C37.2605 15.4442 37.5573 15.5767 37.8015 15.7817C38.0458 15.9868 38.2276 16.2562 38.3265 16.5594C38.417 16.8556 38.4251 17.1709 38.35 17.4715C38.2749 17.772 38.1193 18.0464 37.9 18.2652L30.8718 25.0888L32.5777 34.6929C32.6386 35.0127 32.6067 35.3433 32.4858 35.6455C32.3649 35.9478 32.16 36.2092 31.8953 36.3988C31.5864 36.6152 31.2145 36.7232 30.8377 36.7058Z" fill="white"/>
</g>
</svg>
