<svg width="30" height="24" viewBox="0 0 30 24" fill="none" xmlns="http://www.w3.org/2000/svg">
<g id="fa-solid:praying-hands" clip-path="url(#clip0_1_371)">
<path id="Vector" d="M12.4633 8.68614C11.6613 8.68614 11.005 9.33555 11.005 10.1293V13.737C11.005 14.1357 10.6787 14.4586 10.2759 14.4586C9.87303 14.4586 9.54673 14.1357 9.54673 13.737V10.2848C9.54673 9.5006 9.76183 8.73034 10.1706 8.05749L13.7138 2.21332C14.1281 1.52965 13.9048 0.643484 13.2139 0.233098C12.5554 -0.157896 11.7228 0.0391795 11.2862 0.648445C11.2771 0.658817 11.258 0.657915 11.2502 0.670091L5.90644 8.60271C5.4252 9.31706 5.17182 10.1473 5.17182 11.0032V14.6214L1.06487 15.9761C0.774466 16.0717 0.521861 16.2554 0.342883 16.5011C0.163906 16.7468 0.0676427 17.042 0.0677491 17.3448V21.6742C0.0677491 22.1621 0.456023 23.1173 1.52605 23.1173C1.64864 23.1173 1.7726 23.102 1.89337 23.0708L10.0594 20.9684C12.3339 20.3249 13.9216 18.2418 13.9216 15.9017V10.1293C13.9216 9.33555 13.2654 8.68614 12.4633 8.68614ZM28.2367 15.9797L24.1298 14.625V11.0069C24.1298 10.1509 23.8764 9.32066 23.3952 8.60632L18.0514 0.67415C18.0432 0.661974 18.0245 0.663327 18.0154 0.652503C17.5788 0.0432383 16.7462 -0.153837 16.0877 0.237157C15.3968 0.647092 15.1735 1.53371 15.5878 2.21738L19.131 8.06155C19.5398 8.7344 19.7549 9.50466 19.7549 10.2889V13.7411C19.7549 14.1398 19.4286 14.4627 19.0257 14.4627C18.6229 14.4627 18.2966 14.1398 18.2966 13.7411V10.1333C18.2966 9.33961 17.6403 8.6902 16.8383 8.6902C16.0362 8.6902 15.38 9.33961 15.38 10.1333V15.9058C15.38 18.2459 16.9677 20.3289 19.2422 20.972L27.4082 23.0745C27.5295 23.1056 27.6534 23.1209 27.7755 23.1209C28.8456 23.1209 29.2339 22.1657 29.2339 21.6778V17.3484C29.2339 16.7275 28.8324 16.1764 28.2367 15.9797Z" fill="url(#paint0_linear_1_371)"/>
</g>
<defs>
<linearGradient id="paint0_linear_1_371" x1="14.6508" y1="0.0311279" x2="14.6508" y2="23.1209" gradientUnits="userSpaceOnUse">
<stop stop-color="#FD3A84"/>
<stop offset="1" stop-color="#FFA68D"/>
</linearGradient>
<clipPath id="clip0_1_371">
<rect width="29.1661" height="23.0898" fill="white" transform="translate(0.067749 0.0313721)"/>
</clipPath>
</defs>
</svg>
