<svg width="47" height="47" viewBox="0 0 47 47" fill="none" xmlns="http://www.w3.org/2000/svg">
<g id="heroicons-solid:fire">
<path id="Vector" fill-rule="evenodd" clip-rule="evenodd" d="M29.42 6.66926C29.2735 6.37577 29.0662 6.11682 28.8118 5.90962C28.5575 5.70243 28.262 5.55173 27.945 5.46755C27.6279 5.38337 27.2966 5.36763 26.973 5.42138C26.6494 5.47513 26.3409 5.59713 26.0681 5.77929C25.2706 6.31096 24.6488 7.06917 24.168 7.81352C23.6733 8.57635 23.2364 9.4617 22.8503 10.3933C22.0783 12.2518 21.431 14.4802 20.9086 16.7133C20.2768 19.4421 19.8036 22.2053 19.4916 24.9889C18.551 24.3825 17.7953 23.5293 17.3071 22.5224C16.5489 20.9505 16.387 18.9763 16.387 16.3873C16.387 15.9302 16.2513 15.4834 15.9973 15.1033C15.7433 14.7233 15.3823 14.4271 14.96 14.2521C14.5376 14.0772 14.0729 14.0314 13.6246 14.1206C13.1762 14.2097 12.7644 14.4298 12.4411 14.753C10.9366 16.2543 9.74351 18.0379 8.93028 20.0016C8.11705 21.9652 7.69973 24.0702 7.70228 26.1955C7.70247 28.8565 8.35889 31.4763 9.61339 33.823C10.8679 36.1697 12.6818 38.1708 14.8943 39.6491C17.1069 41.1273 19.6499 42.0371 22.298 42.2979C24.9462 42.5586 27.6177 42.1623 30.0761 41.1439C32.5345 40.1256 34.7038 38.5167 36.392 36.4598C38.0801 34.4028 39.2348 31.9613 39.754 29.3515C40.2732 26.7417 40.1407 24.0441 39.3684 21.4977C38.5961 18.9513 37.2077 16.6347 35.3262 14.753C33.9577 13.3868 33.0608 12.4761 32.2101 11.3619C31.371 10.2615 30.5365 8.9046 29.42 6.66926ZM28.7843 35.7194C27.8144 36.6881 26.5793 37.3476 25.2349 37.6146C23.8905 37.8817 22.497 37.7444 21.2306 37.22C19.9642 36.6956 18.8815 35.8077 18.1195 34.6684C17.3574 33.5291 16.95 32.1895 16.9488 30.8188C16.9488 30.8188 18.9807 31.9746 22.7278 31.9746C22.7278 29.663 23.8836 22.7281 25.6174 21.5723C26.7732 23.8839 27.4343 24.5612 28.7866 25.9158C29.4316 26.5589 29.9432 27.3231 30.2919 28.1645C30.6406 29.0059 30.8196 29.908 30.8185 30.8188C30.8196 31.7296 30.6406 32.6316 30.2919 33.4731C29.9432 34.3145 29.4316 35.0787 28.7866 35.7217L28.7843 35.7194Z" fill="white"/>
</g>
</svg>
