<svg width="51" height="51" viewBox="0 0 51 51" fill="none" xmlns="http://www.w3.org/2000/svg">
<g id="ic:round-access-time-filled">
<path id="Vector" d="M25.4787 4.24994C13.7487 4.24994 4.24994 13.7699 4.24994 25.4999C4.24994 37.2299 13.7487 46.7499 25.4787 46.7499C37.2299 46.7499 46.7499 37.2299 46.7499 25.4999C46.7499 13.7699 37.2299 4.24994 25.4787 4.24994ZM33.9999 33.9999C33.8034 34.1969 33.5698 34.3532 33.3128 34.4599C33.0557 34.5665 32.7801 34.6214 32.5018 34.6214C32.2235 34.6214 31.9479 34.5665 31.6909 34.4599C31.4338 34.3532 31.2003 34.1969 31.0037 33.9999L24.0124 27.0087C23.8117 26.8119 23.6519 26.5772 23.5425 26.3182C23.4331 26.0592 23.3761 25.7811 23.3749 25.4999V16.9999C23.3749 15.8312 24.3312 14.8749 25.4999 14.8749C26.6687 14.8749 27.6249 15.8312 27.6249 16.9999V24.6287L33.9999 31.0037C34.8287 31.8324 34.8287 33.1712 33.9999 33.9999Z" fill="white"/>
</g>
</svg>
