<svg width="23" height="23" viewBox="0 0 23 23" fill="none" xmlns="http://www.w3.org/2000/svg">
<g id="wpf:like">
<path id="Vector" d="M15.1744 3.59735C13.4109 3.59735 11.9041 4.8543 11.0763 5.72087C10.2484 4.8543 8.74492 3.59735 6.98234 3.59735C3.9443 3.59735 1.8233 5.71498 1.8233 8.74629C1.8233 12.0864 4.45751 14.2452 7.0059 16.3334C8.209 17.3203 9.45417 18.34 10.4091 19.4707C10.5698 19.66 10.8053 19.7694 11.0527 19.7694H11.1015C11.3497 19.7694 11.5844 19.6592 11.7443 19.4707C12.7009 18.34 13.9452 17.3194 15.1491 16.3334C17.6967 14.2461 20.3326 12.0872 20.3326 8.74629C20.3326 5.71498 18.2116 3.59735 15.1744 3.59735Z" fill="#7D6B7D"/>
</g>
</svg>
